HIERARCHY
ROOT Hips
{
	OFFSET	0	0	0
	CHANNELS 6  Xposition Yposition Zposition Xrotation Yrotation Zrotation
	JOINT Spine
	{
		OFFSET	0	6.86795	1.37906
		CHANNELS 3  Xrotation Yrotation Zrotation
		JOINT Spine1
		{
			OFFSET	0	11.7606	-2.1001
			CHANNELS 3  Xrotation Yrotation Zrotation
			JOINT Spine2
			{
				OFFSET	0	8.91491	0.955545
				CHANNELS 3  Xrotation Yrotation Zrotation
				JOINT Spine3
				{
					OFFSET	0	10.6685	3.17115
					CHANNELS 3  Xrotation Yrotation Zrotation
					JOINT Spine4
					{
						OFFSET	0	15.7927	-1.61708
						CHANNELS 3  Xrotation Yrotation Zrotation
						JOINT Neck
						{
							OFFSET	0	7.53935	-5.28175
							CHANNELS 3  Xrotation Yrotation Zrotation
							JOINT Head
							{
								OFFSET	0	9.05142	-2.70913
								CHANNELS 3  Xrotation Yrotation Zrotation
								End Site
								{
									OFFSET	0	18.8799	-0.913543
								}
							}
						}
					}
					JOINT LeftShoulder
					{
						OFFSET	-4.53621	19.1949	-9.05142
						CHANNELS 3  Xrotation Yrotation Zrotation
						JOINT LeftArm
						{
							OFFSET	-9.8955	-2.70912	3.47568
							CHANNELS 3  Xrotation Yrotation Zrotation
							JOINT LeftForeArm
							{
								OFFSET	-33.3495	-1.52213	2.38045
								CHANNELS 3  Xrotation Yrotation Zrotation
								JOINT LeftHand
								{
									OFFSET	-27.054	-1.86958	1.93108
									CHANNELS 3  Xrotation Yrotation Zrotation
									End Site
									{
										OFFSET	-9.87335	-0.682306	0.704704
									}
								}
							}
						}
					}
					JOINT RightShoulder
					{
						OFFSET	4.53621	19.1949	-9.05142
						CHANNELS 3  Xrotation Yrotation Zrotation
						JOINT RightArm
						{
							OFFSET	9.8955	-2.70912	3.47568
							CHANNELS 3  Xrotation Yrotation Zrotation
							JOINT RightForeArm
							{
								OFFSET	33.3495	-1.52213	2.38045
								CHANNELS 3  Xrotation Yrotation Zrotation
								JOINT RightHand
								{
									OFFSET	27.054	-1.86958	1.93108
									CHANNELS 3  Xrotation Yrotation Zrotation
									End Site
									{
										OFFSET	9.87335	-0.682306	0.704704
									}
								}
							}
						}
					}
				}
			}
		}
	}
	JOINT LeftUpLeg
	{
		OFFSET	-9.35843	-3.43397	-0.689532
		CHANNELS 3  Xrotation Yrotation Zrotation
		JOINT LeftLeg
		{
			OFFSET	-2.06148	-40.3938	-0.631444
			CHANNELS 3  Xrotation Yrotation Zrotation
			JOINT LeftFoot
			{
				OFFSET	-2.01493	-37.1416	3.19418
				CHANNELS 3  Xrotation Yrotation Zrotation
				JOINT LeftToeBase
				{
					OFFSET	0	-4.59973	-12.2169
					CHANNELS 3  Xrotation Yrotation Zrotation
					End Site
					{
						OFFSET	0	-1.83989	-7.35956
					}
				}
			}
		}
	}
	JOINT RightUpLeg
	{
		OFFSET	9.35843	-3.43397	-0.689532
		CHANNELS 3  Xrotation Yrotation Zrotation
		JOINT RightLeg
		{
			OFFSET	2.06148	-40.3938	-0.631444
			CHANNELS 3  Xrotation Yrotation Zrotation
			JOINT RightFoot
			{
				OFFSET	2.01493	-37.1416	3.19418
				CHANNELS 3  Xrotation Yrotation Zrotation
				JOINT RightToeBase
				{
					OFFSET	0	-4.59973	-12.2169
					CHANNELS 3  Xrotation Yrotation Zrotation
					End Site
					{
						OFFSET	0	-1.83989	-7.35956
					}
				}
			}
		}
	}
}
MOTION
Frames: 14
Frame Time: 0.020408
 0 -8.54439 2.99032 -0 0 -0 -0 0 -0 -0 0 -0 -0 0 -0 -0 0 -0 -0 0 -0 -0 0 -0 -0 0 -0 -0 0 -0 -0 0 -0 -0 0 -0 -0 0 -0 -0 0 -0 -0 0 -0 -0 0 -0 -0 0 -0 -0 0 -0 -0 0 -0 -0 0 -0 -0 0 -0 -0 0 -0 -0 0 -0 -0 0 -0 -0 0 -0
 53.0488 88.2527 -283.053 162.83 -3.68876 176.405 0.000103862 -0.0131874 0.451244 172.982 -179.974 -179.248 173.801 -179.921 -179.248 177.779 -179.987 -179.549 171.926 -179.979 -179.851 163.122 177.728 164.241 174.969 167.15 177.444 1.15148 19.2943 1.71569 168.189 -98.2691 -141.039 64.8307 -69.2809 61.52 -0 -51.213 11.9268 179.906 151.248 -179.795 90.9423 103.954 -149.57 24.997 57.0617 -19.6889 -0 -12.6632 0.644366 177.598 153.871 174.305 170.189 -172.169 -179.942 170.831 179.981 -170.17 174.779 180 -180 158.072 -167.377 174.92 11.6574 4.99027 0.0300165 178.932 179.962 169.101 171.152 180 -180
 52.8676 88.3565 -283.207 162.706 -5.62032 175.642 6.28415e-06 -0.000773438 0.465516 172.943 -179.998 -179.224 173.746 -179.995 -179.224 177.703 -179.999 -179.534 172.029 -179.978 -179.846 163.455 177.287 164.234 175.049 166.137 177.548 1.08521 20.1969 1.58963 165.892 -98.2513 -143.013 65.6512 -68.3604 62.0875 -0 -52.0299 12.3246 179.965 151.28 -179.925 91.4176 103.828 -149.892 24.7519 56.1585 -19.216 -0 -14.3623 0.540167 178.466 154.461 173.514 170.589 -171.327 -179.942 168.554 179.94 -170.213 174.743 180 -180 158.025 -167.294 174.98 11.7336 4.638 -0.00761257 178.223 -179.993 169.205 171.062 180 -180
 52.5135 88.4875 -283.157 162.648 -8.1997 174.698 180 179.997 -179.556 172.938 179.993 -179.259 173.725 179.98 -179.259 177.652 179.997 -179.556 172.141 -179.98 -179.853 163.832 176.536 164.746 175.119 164.82 177.825 1.02367 20.6188 1.4873 161.674 -97.7708 -147.137 65.7841 -67.5146 62.0643 -0 -52.6857 12.8743 179.955 151.507 -179.902 91.3665 103.866 -150.175 24.9488 55.7453 -19.1425 -0 -15.9746 0.403343 179.202 154.845 172.866 171.129 -170.626 -179.972 167.554 179.858 -170.249 174.705 180 -180 158.016 -166.993 174.985 11.6998 3.92547 0.166761 177.73 -179.92 169.32 170.969 180 -180
 52.5493 88.5732 -283.116 162.709 -9.93488 174.147 180 180 -179.617 172.971 179.999 -179.362 173.741 179.997 -179.362 177.623 180 -179.617 172.268 -179.983 -179.874 164.278 175.546 166.061 175.189 163.51 178.312 1.16813 20.3148 1.70734 155.237 -96.3103 -153.481 64.3057 -66.5922 60.4219 -0 -52.8527 13.557 179.684 151.844 -179.314 91.8263 104.405 -151.511 25.3848 55.4935 -19.4676 -0 -17.8367 0.179061 179.62 155.273 172.435 173.022 -169.682 -179.994 165.2 179.949 -170.196 174.663 180 -180 157.797 -166.041 175.039 11.6952 2.73344 0.167027 177.828 179.988 169.671 170.859 180 -180
 52.369 88.627 -283.275 162.69 -10.955 173.682 2.4297e-05 -0.0040211 0.346199 173.001 -179.992 -179.423 173.761 -179.976 -179.423 177.615 -179.996 -179.654 172.345 -179.985 -179.886 164.562 174.75 167.14 175.223 162.525 178.706 1.31455 20.4777 1.91551 149.302 -95.2415 -159.454 63.4389 -65.8462 59.2521 -0 -52.9927 14.2292 179.683 152.497 -179.311 92.3275 104.384 -152.149 26.0772 55.7263 -20.1717 -0 -19.5628 0.12711 179.503 155.432 172.595 175.064 -168.913 179.98 163.379 179.954 -170.136 174.618 180 -180 157.847 -164.943 175.069 11.6774 1.72293 0.0408129 177.729 179.867 170.046 170.747 180 -180
 52.444 88.6527 -283.57 162.79 -12.2315 172.887 2.52204e-05 -0.00485743 0.297485 173.05 -179.99 -179.504 173.815 -179.971 -179.504 177.663 -179.995 -179.703 172.324 -179.987 -179.902 164.54 173.995 168.154 175.166 161.699 179.084 1.39922 20.6056 2.03399 145.881 -94.1336 -162.869 62.3649 -65.0623 58.0345 -0 -52.8417 14.7705 179.313 153.34 -178.508 92.6167 104.598 -152.5 27.1177 56.3123 -21.2855 -0 -21.1113 -0.156414 179.349 155.504 172.519 177.632 -168.165 -179.969 161.955 179.955 -170.121 174.576 180 -180 158.216 -163.692 174.995 11.6036 0.620818 -0.179298 177.806 179.931 170.374 170.632 180 -180
 52.4601 88.7263 -283.711 162.859 -13.1208 172.322 4.67645e-05 -0.0106276 0.252117 173.087 -179.979 -179.58 173.859 -179.936 -179.58 177.708 -179.989 -179.748 172.291 -179.989 -179.917 164.453 173.481 168.61 175.104 161.017 179.301 1.39961 20.8096 2.02649 140.546 -93.3793 -168.16 61.7178 -64.4096 57.2745 -0 -52.6334 15.2274 179.007 154.004 -177.842 92.4939 104.702 -152.202 28.1297 56.7573 -22.3182 -0 -22.8477 -0.420563 179.651 155.962 172.84 1.39213 -12.7681 0.0383946 158.386 179.986 -170.074 174.533 180 -180 158.513 -162.544 175.414 11.5917 -0.2112 -0.215385 177.823 179.84 170.583 170.517 180 -180
 52.7233 88.7753 -283.921 163.015 -14.2791 171.818 2.73299e-05 -0.00925811 0.169136 173.153 -179.981 -179.718 173.92 -179.944 -179.718 177.737 -179.991 -179.831 172.346 -179.992 -179.944 164.582 173.154 169.029 175.122 160.601 179.457 1.41818 20.5722 2.06292 134.464 -92.6946 -174.208 61.2242 -63.934 56.67 -0 -52.0929 15.8701 178.673 154.591 -177.118 93.2514 105.127 -152.65 29.5431 57.4488 -23.7726 -0 -24.6485 -0.84091 179.205 156.748 174.215 5.8113 -14.0296 0.497508 156.869 -179.981 -169.885 174.487 180 -180 159.112 -161.336 175.76 11.5464 -1.03028 -0.213696 177.71 179.901 170.712 170.4 180 -180
 53.0348 88.8394 -284.068 163.218 -15.5772 171.218 8.05151e-06 -0.00485916 0.0949375 173.243 -179.99 -179.842 173.998 -179.971 -179.842 177.76 -179.995 -179.905 172.464 -179.996 -179.969 164.824 173.204 168.888 175.199 160.543 179.409 1.41947 20.3379 2.07416 129.208 -91.9335 -179.541 60.9107 -63.5084 56.2296 -0 -51.703 16.5302 178.36 155.014 -176.438 94.0345 105.581 -153.111 31.3205 58.2295 -25.5638 -0 -26.2386 -1.38938 178.729 157.586 175.022 9.57039 -15.3336 0.260814 156.751 179.976 -169.734 174.442 180 -180 159.658 -160.382 176.266 11.5475 -1.58431 -0.253968 177.745 179.915 170.574 170.287 180 -180
 53.5 88.8832 -284.215 163.381 -16.2729 170.989 5.95761e-07 -0.00273782 0.0124678 173.317 -179.995 -179.979 174.058 -179.984 -179.979 177.769 -179.997 -179.988 172.582 -179.999 -179.996 165.07 173.408 168.618 175.289 160.693 179.299 1.34563 20.3708 1.96491 112.563 -91.0904 164.359 60.9893 -62.8953 56.0826 -0 -51.2854 17.0761 178.21 155.647 -176.116 95.9748 105.962 -155.213 33.6359 59.0618 -27.8228 -0 -27.6509 -1.98031 178.849 159.461 175.098 10.3729 -16.4989 0.228092 156.888 179.997 -169.319 174.385 180 -180 160.033 -159.546 176.939 11.6123 -1.93499 -0.401827 177.695 179.967 170.145 170.172 180 -180
 54.2751 88.9598 -284.229 163.319 -17.0307 170.485 180 -179.997 179.944 173.357 -179.993 179.906 174.051 -179.979 179.906 177.655 -179.997 179.944 172.924 179.998 179.981 165.976 173.823 168.295 175.596 160.996 179.105 1.38836 20.8278 2.00947 50.0287 -89.8799 102.463 61.4285 -62.2085 56.518 -0 -50.9839 17.3888 178.104 155.893 -175.885 97.5572 106.353 -156.885 35.8048 59.7353 -30.1345 -0 -28.9967 -2.49713 178.809 161.687 175.18 9.94598 -16.5923 0.309633 156.877 179.999 -168.799 174.323 180 -180 160.134 -158.736 177.597 11.6128 -2.3211 -0.127335 177.668 179.982 169.791 170.064 180 -180
 54.6574 89.0047 -284.261 163.301 -17.8296 170.123 180 -179.992 179.916 173.406 -179.984 179.861 174.072 -179.953 179.861 177.602 -179.992 179.916 173.14 179.997 179.972 166.516 174.215 168.143 175.788 161.465 178.966 1.42727 21.5679 2.03579 71.8961 -89.2963 124.529 63.6169 -61.899 58.8757 -0 -50.9771 17.6374 178.026 156.117 -175.717 99.5041 106.597 -158.922 38.0514 60.4219 -32.4116 -0 -30.1817 -2.90314 179.394 163.934 175.122 9.12171 -16.6313 0.234044 157.069 179.969 -168.546 174.262 180 -180 160.169 -158.111 178.186 11.736 -2.69086 -0.202062 177.666 179.994 169.372 169.962 180 -180
 54.5311 89.0223 -284.259 163.04 -19.9605 169.533 180 -179.992 179.871 173.416 -179.983 179.785 174.08 -179.95 179.785 177.603 -179.992 179.871 173.158 179.995 179.957 166.544 174.593 168.212 175.82 162.209 178.893 1.46953 22.2709 2.0664 65.6131 -89.0746 118.257 65.5663 -61.7579 60.9707 -0 -50.9568 18.0954 178.113 156.555 -175.907 102.121 106.414 -161.94 40.5116 61.118 -34.9634 -0 -31.3447 -3.37577 0.466846 13.6915 -4.84228 8.33755 -16.6309 0.196909 157.273 179.938 -168.578 174.207 180 -180 160.018 -157.344 178.042 11.683 -3.26594 -0.0803482 177.747 -179.925 169.016 169.863 180 -180
